<svg width="16" height="16" viewBox="0 0 16 16" fill="none" xmlns="http://www.w3.org/2000/svg">
<path d="M11.3334 1.33203H4.66671C2.82576 1.33203 1.33337 2.82442 1.33337 4.66536V11.332C1.33337 13.173 2.82576 14.6654 4.66671 14.6654H11.3334C13.1743 14.6654 14.6667 13.173 14.6667 11.332V4.66536C14.6667 2.82442 13.1743 1.33203 11.3334 1.33203Z" stroke="white" stroke-width="1.33333" stroke-linecap="round" stroke-linejoin="round"/>
<path d="M10.6667 7.5802C10.7489 8.13503 10.6542 8.70168 10.3958 9.19954C10.1375 9.69741 9.72877 10.1011 9.22776 10.3533C8.72675 10.6055 8.15897 10.6933 7.6052 10.6042C7.05143 10.515 6.53985 10.2536 6.14323 9.85698C5.74662 9.46036 5.48516 8.94878 5.39605 8.39501C5.30694 7.84124 5.39472 7.27346 5.64689 6.77245C5.89907 6.27144 6.3028 5.86269 6.80066 5.60436C7.29853 5.34603 7.86518 5.25126 8.42001 5.33353C8.98596 5.41746 9.50991 5.68118 9.91447 6.08574C10.319 6.4903 10.5828 7.01425 10.6667 7.5802Z" stroke="white" stroke-width="1.33333" stroke-linecap="round" stroke-linejoin="round"/>
<path d="M11.6666 4.33203H11.6733" stroke="white" stroke-width="1.33333" stroke-linecap="round" stroke-linejoin="round"/>
</svg>
