<svg width="33" height="32" viewBox="0 0 33 32" fill="none" xmlns="http://www.w3.org/2000/svg">
<path d="M22.0031 28V25.3333C22.0031 23.9188 21.4412 22.5623 20.441 21.5621C19.4408 20.5619 18.0842 20 16.6698 20H8.66976C7.25527 20 5.89872 20.5619 4.89852 21.5621C3.89833 22.5623 3.33643 23.9188 3.33643 25.3333V28" stroke="white" stroke-width="2.66667" stroke-linecap="round" stroke-linejoin="round"/>
<path d="M12.6698 14.6667C15.6153 14.6667 18.0031 12.2789 18.0031 9.33333C18.0031 6.38781 15.6153 4 12.6698 4C9.72424 4 7.33643 6.38781 7.33643 9.33333C7.33643 12.2789 9.72424 14.6667 12.6698 14.6667Z" stroke="white" stroke-width="2.66667" stroke-linecap="round" stroke-linejoin="round"/>
<path d="M22.0032 14.6667L24.6698 17.3333L30.0032 12" stroke="white" stroke-width="2.66667" stroke-linecap="round" stroke-linejoin="round"/>
</svg>
