<svg width="32" height="32" viewBox="0 0 32 32" fill="none" xmlns="http://www.w3.org/2000/svg">
<path d="M21.3351 28V25.3333C21.3351 23.9188 20.7732 22.5623 19.773 21.5621C18.7728 20.5619 17.4163 20 16.0018 20H8.00179C6.5873 20 5.23075 20.5619 4.23055 21.5621C3.23036 22.5623 2.66846 23.9188 2.66846 25.3333V28" stroke="white" stroke-width="2.66667" stroke-linecap="round" stroke-linejoin="round"/>
<path d="M12.0018 14.6667C14.9473 14.6667 17.3351 12.2789 17.3351 9.33333C17.3351 6.38781 14.9473 4 12.0018 4C9.05627 4 6.66846 6.38781 6.66846 9.33333C6.66846 12.2789 9.05627 14.6667 12.0018 14.6667Z" stroke="white" stroke-width="2.66667" stroke-linecap="round" stroke-linejoin="round"/>
<path d="M22.6685 10.668L29.3351 17.3346" stroke="white" stroke-width="2.66667" stroke-linecap="round" stroke-linejoin="round"/>
<path d="M29.3351 10.668L22.6685 17.3346" stroke="white" stroke-width="2.66667" stroke-linecap="round" stroke-linejoin="round"/>
</svg>
