<svg width="19" height="19" viewBox="0 0 19 19" fill="none" xmlns="http://www.w3.org/2000/svg">
<g clip-path="url(#clip0_1039_1093)">
<path d="M10.6943 12.4846C10.8492 12.5557 11.0237 12.572 11.1891 12.5307C11.3544 12.4894 11.5008 12.393 11.6041 12.2573L11.8703 11.9086C12.01 11.7223 12.1912 11.5711 12.3995 11.467C12.6078 11.3628 12.8374 11.3086 13.0703 11.3086H15.3203C15.7181 11.3086 16.0997 11.4666 16.381 11.7479C16.6623 12.0292 16.8203 12.4108 16.8203 12.8086V15.0586C16.8203 15.4564 16.6623 15.8379 16.381 16.1193C16.0997 16.4006 15.7181 16.5586 15.3203 16.5586C11.7399 16.5586 8.30611 15.1363 5.77437 12.6045C3.24263 10.0728 1.82031 6.63902 1.82031 3.05859C1.82031 2.66077 1.97835 2.27924 2.25965 1.99793C2.54096 1.71663 2.92249 1.55859 3.32031 1.55859H5.57031C5.96814 1.55859 6.34967 1.71663 6.63097 1.99793C6.91228 2.27924 7.07031 2.66077 7.07031 3.05859V5.30859C7.07031 5.54146 7.01609 5.77113 6.91195 5.97941C6.80781 6.1877 6.65661 6.36887 6.47031 6.50859L6.11931 6.77184C5.98162 6.87698 5.88458 7.02653 5.84466 7.19511C5.80473 7.36368 5.8244 7.54088 5.90031 7.69659C6.92532 9.77849 8.61113 11.4622 10.6943 12.4846Z" stroke="black" stroke-width="1.5" stroke-linecap="round" stroke-linejoin="round"/>
</g>
<defs>
<clipPath id="clip0_1039_1093">
<rect width="18" height="18" fill="white" transform="translate(0.320312 0.0585938)"/>
</clipPath>
</defs>
</svg>
