<svg width="33" height="32" viewBox="0 0 33 32" fill="none" xmlns="http://www.w3.org/2000/svg">
<path d="M21.6733 28V25.3333C21.6733 23.9188 21.1114 22.5623 20.1112 21.5621C19.111 20.5619 17.7544 20 16.3399 20H8.33993C6.92544 20 5.56888 20.5619 4.56869 21.5621C3.5685 22.5623 3.00659 23.9188 3.00659 25.3333V28" stroke="white" stroke-width="2.66667" stroke-linecap="round" stroke-linejoin="round"/>
<path d="M12.3399 14.6667C15.2854 14.6667 17.6733 12.2789 17.6733 9.33333C17.6733 6.38781 15.2854 4 12.3399 4C9.39441 4 7.00659 6.38781 7.00659 9.33333C7.00659 12.2789 9.39441 14.6667 12.3399 14.6667Z" stroke="white" stroke-width="2.66667" stroke-linecap="round" stroke-linejoin="round"/>
<path d="M29.6733 27.9985V25.3319C29.6725 24.1502 29.2791 23.0022 28.5552 22.0683C27.8312 21.1344 26.8175 20.4673 25.6733 20.1719" stroke="white" stroke-width="2.66667" stroke-linecap="round" stroke-linejoin="round"/>
<path d="M21.6733 4.17188C22.8206 4.46561 23.8374 5.13281 24.5635 6.06829C25.2897 7.00377 25.6838 8.15431 25.6838 9.33854C25.6838 10.5228 25.2897 11.6733 24.5635 12.6088C23.8374 13.5443 22.8206 14.2115 21.6733 14.5052" stroke="white" stroke-width="2.66667" stroke-linecap="round" stroke-linejoin="round"/>
</svg>
